HIERARCHY
ROOT Hips
{
	OFFSET 0.000000 0.000000 0.000000
	CHANNELS 6 Xposition Yposition Zposition Zrotation Yrotation Xrotation 
	JOINT LHipJoint
	{
		OFFSET 0.000000 0.000000 0.000000
		CHANNELS 3 Zrotation Yrotation Xrotation
		JOINT LeftUpLeg
		{
			OFFSET 1.363060 -1.794630 0.839290
			CHANNELS 3 Zrotation Yrotation Xrotation
			JOINT LeftLeg
			{
				OFFSET 2.448110 -6.726130 0.000000
				CHANNELS 3 Zrotation Yrotation Xrotation
				JOINT LeftFoot
				{
					OFFSET 2.562200 -7.039590 0.000000
					CHANNELS 3 Zrotation Yrotation Xrotation
					JOINT LeftToeBase
					{
						OFFSET 0.157640 -0.433110 2.322550
						CHANNELS 3 Zrotation Yrotation Xrotation
						End Site
						{
							OFFSET 0.000000 0.000000 0.000000
						}
					}
				}
			}
		}
	}
	JOINT RHipJoint
	{
		OFFSET 0.000000 0.000000 0.000000
		CHANNELS 3 Zrotation Yrotation Xrotation
		JOINT RightUpLeg
		{
			OFFSET -1.305520 -1.794630 0.839290
			CHANNELS 3 Zrotation Yrotation Xrotation
			JOINT RightLeg
			{
				OFFSET -2.542530 -6.985550 0.000000
				CHANNELS 3 Zrotation Yrotation Xrotation
				JOINT RightFoot
				{
					OFFSET -2.568260 -7.056230 0.000000
					CHANNELS 3 Zrotation Yrotation Xrotation
					JOINT RightToeBase
					{
						OFFSET -0.164730 -0.452590 2.363150
						CHANNELS 3 Zrotation Yrotation Xrotation
						End Site
						{
							OFFSET 0.000000 0.000000 0.000000
						}
					}
				}
			}
		}
	}
	JOINT LowerBack
	{
		OFFSET 0.000000 0.000000 0.000000
		CHANNELS 3 Zrotation Yrotation Xrotation
		JOINT Spine
		{
			OFFSET 0.028270 2.035590 -0.193380
			CHANNELS 3 Zrotation Yrotation Xrotation
			JOINT Spine1
			{
				OFFSET 0.056720 2.048850 -0.042750
				CHANNELS 3 Zrotation Yrotation Xrotation
				JOINT Neck
				{
					OFFSET 0.000000 0.000000 0.000000
					CHANNELS 3 Zrotation Yrotation Xrotation
					JOINT Neck1
					{
						OFFSET -0.054170 1.746240 0.172020
						CHANNELS 3 Zrotation Yrotation Xrotation
						JOINT Head
						{
							OFFSET 0.104070 1.761360 -0.123970
							CHANNELS 3 Zrotation Yrotation Xrotation
							End Site
							{
								OFFSET 0.000000 0.000000 0.000000
							}
						}
					}
				}
				JOINT LeftShoulder
				{
					OFFSET 0.000000 0.000000 0.000000
					CHANNELS 3 Zrotation Yrotation Xrotation
					JOINT LeftArm
					{
						OFFSET 3.362410 1.200890 -0.311210
						CHANNELS 3 Zrotation Yrotation Xrotation
						JOINT LeftForeArm
						{
							OFFSET 4.983000 -0.000000 -0.000000
							CHANNELS 3 Zrotation Yrotation Xrotation
							JOINT LeftHand
							{
								OFFSET 3.483560 -0.000000 -0.000000
								CHANNELS 3 Zrotation Yrotation Xrotation
								JOINT LeftFingerBase
								{
									OFFSET 0.000000 0.000000 0.000000
									CHANNELS 3 Zrotation Yrotation Xrotation
									JOINT LeftHandIndex1
									{
										OFFSET 0.715260 -0.000000 -0.000000
										CHANNELS 3 Zrotation Yrotation Xrotation
										End Site
										{
											OFFSET 0.000000 0.000000 0.000000
										}
									}
								}
								JOINT LThumb
								{
									OFFSET 0.000000 0.000000 0.000000
									CHANNELS 3 Zrotation Yrotation Xrotation
									End Site
									{
										OFFSET 0.000000 0.000000 0.000000
									}
								}
							}
						}
					}
				}
				JOINT RightShoulder
				{
					OFFSET 0.000000 0.000000 0.000000
					CHANNELS 3 Zrotation Yrotation Xrotation
					JOINT RightArm
					{
						OFFSET -3.136600 1.374050 -0.404650
						CHANNELS 3 Zrotation Yrotation Xrotation
						JOINT RightForeArm
						{
							OFFSET -5.241900 -0.000000 -0.000000
							CHANNELS 3 Zrotation Yrotation Xrotation
							JOINT RightHand
							{
								OFFSET -3.444170 -0.000000 -0.000000
								CHANNELS 3 Zrotation Yrotation Xrotation
								JOINT RightFingerBase
								{
									OFFSET 0.000000 0.000000 0.000000
									CHANNELS 3 Zrotation Yrotation Xrotation
									JOINT RightHandIndex1
									{
										OFFSET -0.622530 -0.000000 -0.000000
										CHANNELS 3 Zrotation Yrotation Xrotation
										End Site
										{
											OFFSET 0.000000 0.000000 0.000000
										}
									}
								}
								JOINT RThumb
								{
									OFFSET 0.000000 0.000000 0.000000
									CHANNELS 3 Zrotation Yrotation Xrotation
									End Site
									{
										OFFSET 0.000000 0.000000 0.000000
									}
								}
							}
						}
					}
				}
			}
		}
	}
}
MOTION
Frames: 4
Frame Time: 0.008333
-4.095898 17.221058 -0.223965 -155.163287 85.745912 -124.985078 -8.933914 -0.967815 -0.251820 -21.124357 -4.010976 -55.433445 -3.139155 0.353640 19.559189 1.754364 8.987428 -0.799593 1.971100 0.000000 -32.609900 9.637226 -0.965833 -6.935614 14.112098 -16.827557 -36.810581 1.296407 -4.512646 48.777781 -0.606163 -1.549693 11.516706 -0.557901 0.000000 -76.143800 -0.955410 1.269704 10.299941 -0.768280 1.578742 -1.279471 -4.507489 1.630784 -1.751108 3.152199 -4.703867 -3.179000 -0.403489 -0.079234 0.831663 0.000000 0.000000 0.000000 6.498222 16.614280 0.533637 -62.491077 41.537548 34.098611 -179.785553 -79.774120 179.996153 1.398455 -1.715298 -0.022413 0.013214 0.173197 0.000000 0.000000 0.000000 0.000000 0.000000 0.000000 0.000000 -8.903354 1.332089 -3.303036 77.684182 13.815147 20.022333 179.694852 75.501146 179.963214 -4.276480 9.747044 -0.392485 0.047897 -0.636101 -0.000000 0.000000 0.000000 0.000000 0.000000 0.000000 0.000000 
-3.899450 17.225865 -0.257874 -152.930337 85.476615 -123.017685 -8.974929 -0.893339 -0.319963 -21.873247 -3.343646 -55.057725 -3.211405 0.288866 18.709379 1.759447 9.266663 -0.056849 2.166700 0.000000 -32.156900 9.690716 -1.030437 -6.977194 14.097660 -17.332910 -36.802860 1.168953 -4.599246 49.847538 -0.693317 -1.885883 12.977158 -0.666101 -0.000000 -74.621200 -0.997335 1.271974 10.334077 -0.769761 1.587408 -1.259921 -4.504921 1.642873 -1.679036 3.090384 -4.853311 -3.277725 -0.392291 -0.076910 0.806415 0.000000 0.000000 0.000000 6.571389 16.935325 0.521661 -63.012454 41.095098 33.697607 -179.777907 -79.334319 179.995868 1.420225 -1.786999 -0.023709 0.014592 0.179996 0.000000 0.000000 0.000000 0.000000 0.000000 0.000000 0.000000 -9.061771 1.198697 -3.322892 78.117055 13.375776 20.263893 179.708352 75.774431 179.964338 -4.129688 9.731886 -0.377893 0.043101 -0.630913 -0.000000 0.000000 0.000000 0.000000 0.000000 0.000000 0.000000 
-3.703023 17.218924 -0.291404 -150.533351 85.234869 -120.883473 -9.005725 -0.824173 -0.395791 -22.529936 -2.680003 -54.755761 -3.254450 0.252538 18.224768 1.802270 9.654007 0.406477 2.335600 0.000000 -30.975300 9.746490 -1.086369 -6.994933 14.065380 -17.734988 -36.870659 1.040871 -4.692256 51.096226 -0.784085 -2.288004 13.991855 -0.802101 0.000000 -72.830500 -1.049070 1.278409 10.348972 -0.772394 1.599999 -1.243052 -4.497599 1.658741 -1.600761 3.022910 -4.994943 -3.381419 -0.378521 -0.074350 0.780200 0.000000 0.000000 0.000000 6.657631 17.247748 0.518754 -63.585495 40.591292 33.264502 -179.772942 -78.982437 179.995564 1.452126 -1.856963 -0.025200 0.015501 0.186830 0.000000 0.000000 0.000000 0.000000 0.000000 0.000000 0.000000 -9.231916 1.073369 -3.341147 78.574717 12.922090 20.517298 179.725261 76.100044 179.965257 -4.008492 9.720867 -0.365901 0.038690 -0.625395 -0.000000 0.000000 0.000000 0.000000 0.000000 0.000000 0.000000 
-3.507301 17.199960 -0.325282 -147.815631 85.015245 -118.436240 -9.031618 -0.769309 -0.479893 -23.047308 -2.030120 -54.508463 -3.265928 0.242564 18.097588 1.878351 10.108340 0.538022 2.455900 0.000000 -29.029700 9.799606 -1.137126 -6.997677 14.023730 -18.035563 -36.985136 0.910796 -4.791942 52.506774 -0.871945 -2.734795 14.544160 -0.954900 -0.000001 -70.914700 -1.093929 1.290690 10.357448 -0.772304 1.617912 -1.225695 -4.483085 1.679757 -1.516290 2.946192 -5.124970 -3.493207 -0.361387 -0.071418 0.751842 0.000000 0.000000 0.000000 6.759212 17.561718 0.526881 -64.215547 40.018411 32.809982 -179.770971 -78.725290 179.995222 1.502100 -1.920758 -0.026988 0.015783 0.193635 0.000000 0.000000 0.000000 0.000000 0.000000 0.000000 0.000000 -9.421978 0.961045 -3.358563 79.046757 12.459092 20.776746 179.745286 76.468172 179.965985 -3.910672 9.708173 -0.356009 0.034584 -0.619456 -0.000000 0.000000 0.000000 0.000000 0.000000 0.000000 0.000000 
